<svg width="562" height="350" viewBox="0 0 562 350" fill="none" xmlns="http://www.w3.org/2000/svg">
<path fill-rule="evenodd" clip-rule="evenodd" d="M333.872 3.21914C322.296 6.64589 302.977 12.1033 175.828 47.8652C130.156 60.7106 90.6849 72.0616 88.1115 73.0894C80.529 76.1176 72.6269 85.6899 70.2125 94.7707C68.1374 102.573 68.407 104.788 73.8055 124.265C77.7843 138.627 81.2987 158.69 84.8507 187.334C87.7151 210.438 90.0706 229.865 90.0849 230.507C90.0991 231.147 85.2882 232.232 79.3951 232.917C73.5019 233.601 68.682 234.686 68.682 235.326C68.6874 238.178 75.8199 291.597 76.2431 291.953C76.5038 292.171 81.1362 291.749 86.5383 291.012C91.9403 290.276 96.628 289.908 96.9566 290.195C97.2834 290.481 98.6888 299.389 100.08 309.991C101.985 324.508 103.684 330.891 106.957 335.843C111.561 342.807 123.935 350.004 131.301 350C134.571 350 310.924 328.487 389.232 318.535C407.915 316.162 418.246 308.734 422.464 294.645C424.237 288.717 422.94 274.783 413.533 198.644C407.481 149.656 402.132 107.766 401.65 105.553C400.947 102.334 399.548 101.531 394.639 101.531C391.266 101.531 336.901 107.966 273.824 115.832C210.75 123.697 158.277 130.068 157.219 129.991C153.902 129.748 161.374 127.572 276.726 95.1908C338.604 77.8193 390.008 62.8753 390.959 61.9815C392.064 60.9412 391.491 55.7001 389.369 47.4272C383.592 24.9058 379.937 15.5837 374.69 9.99577C364.647 -0.699185 353.405 -2.5654 333.872 3.21914ZM360.512 13.2384C362.066 13.8354 363.338 15.3102 363.338 16.515C363.338 18.0809 341.626 58.9337 337.365 65.3904C336.72 66.3664 312.669 72.8588 312.039 72.2278C311.687 71.8775 318.868 58.2223 327.993 41.884L344.587 12.1802L351.137 12.1676C354.741 12.1587 358.959 12.6414 360.512 13.2384ZM273.362 57.1927C264.906 72.2385 257.329 85.5648 256.523 86.8071C255.282 88.7163 231.092 96.6691 229.963 95.5376C229.479 95.0532 261.343 38.5699 263.168 36.6769C264.709 35.0788 287.107 28.4255 288.087 29.2746C288.445 29.5838 281.817 42.145 273.362 57.1927ZM204.785 57.2892C202.873 60.4836 195.192 74.0279 187.716 87.3845L174.125 111.672L161.456 115.371C146.241 119.813 145.798 122.535 166.24 85.9813L181.434 58.8104L191.579 55.9485C197.158 54.3737 202.526 52.7881 203.508 52.4235C207.792 50.8361 208.053 51.8318 204.785 57.2892ZM125.826 75.4347C125.826 76.0478 104.645 113.815 103.316 115.569C103.053 115.916 97.9656 113.517 92.01 110.24C82.9631 105.262 81.1809 103.498 81.1809 99.5203C81.1809 92.7293 89.7045 84.3725 99.1639 81.8914C103.514 80.7491 110.691 78.7238 115.111 77.3903C124.004 74.7089 125.826 74.3765 125.826 75.4347ZM509.114 124.221C487.311 140.169 482.983 144.091 482.963 147.906C482.913 157.639 495.996 259.841 497.539 261.768C498.437 262.891 512.448 269.252 528.678 275.908C554.954 286.683 558.479 287.714 560.872 285.317C563.267 282.92 562.392 273.19 552.875 196.447C543.132 117.873 540.853 105.106 536.576 105.106C535.842 105.106 523.485 113.708 509.114 124.221ZM371.374 134.719C401.209 157.868 403.075 161.17 387.426 163.127L377.585 164.359L350.565 143.222L323.546 122.088L329.602 120.983C348.037 117.617 350.285 118.358 371.374 134.719ZM293.256 149.686C323.325 173.162 322.602 171.234 302.327 173.899L293.997 174.994L267.07 154.041C252.261 142.515 240.419 132.81 240.757 132.472C241.26 131.968 257.563 129.276 264.226 128.598C265.208 128.498 278.271 137.988 293.256 149.686ZM109.397 135.852C111.748 138.207 112.338 144.467 110.2 144.375C108.555 144.307 99.0389 136.045 99.0389 134.687C99.0389 132.801 107.273 133.727 109.397 135.852ZM209.743 160.521C238.799 183.214 238.723 182.994 217.996 184.043L208.866 184.504L182.68 164.023C168.278 152.756 156.774 143.256 157.115 142.911C158.06 141.957 176.259 139.419 180.071 139.708C181.914 139.849 195.267 149.214 209.743 160.521ZM103.057 146.833C107.28 150.162 106.987 151.583 102.075 151.583C97.1263 151.583 93.6815 148.476 93.6815 144.013C93.6815 140.555 95.9548 141.24 103.057 146.833ZM540.085 183.993C542.903 206.96 544.932 226.027 544.595 226.365C543.75 227.209 504.386 218.287 503.048 216.948C502.062 215.962 495.721 170.849 495.558 163.665C495.508 161.472 501.16 157.696 514.684 150.889C525.244 145.575 534.124 141.455 534.421 141.732C534.719 142.009 537.267 161.027 540.085 183.993ZM441.307 145.36C431.644 146.597 422.869 148.48 421.808 149.541C419.503 151.849 433.339 268.845 436.264 271.773C438.214 273.725 477.338 270.164 481.375 267.665C482.567 266.929 483.468 263.804 483.381 260.719C483.059 249.445 470.312 150.569 468.677 146.667C466.768 142.112 466.702 142.111 441.307 145.36ZM459.442 160.984C459.93 165.199 459.367 165.883 455.424 165.883C452.422 165.883 450.842 164.902 450.842 163.034C450.842 160.644 449.406 160.383 441.913 161.414C431.9 162.793 428.966 159.546 438.788 157.956C451.97 155.821 453.637 155.619 456.199 155.846C457.714 155.98 459.124 158.213 459.442 160.984ZM150.532 192.264C141.014 194.109 98.7621 198.975 98.0906 198.302C97.6299 197.841 97.2799 194.581 97.3138 191.058C97.3602 186.113 99.3943 182.122 106.234 173.548L115.091 162.446L134.003 177.123C144.405 185.198 151.843 192.01 150.532 192.264ZM399.67 183.312C400.261 187.983 401.268 197.124 401.907 203.628L403.07 215.454L397.043 216.496C383.51 218.84 313.153 227.073 312.474 226.394C311.426 225.345 306.503 186.589 307.304 185.698C308.212 184.69 382.015 175.32 391.234 175.043L398.593 174.821L399.67 183.312ZM461.557 180.037C461.557 181.923 462.044 184.738 462.641 186.294C463.485 188.498 462.501 189.122 458.176 189.122C454.262 189.122 452.628 188.272 452.628 186.236C452.628 183.841 451.295 183.553 444.75 184.535C439.675 185.298 436.434 185.008 435.643 183.725C433.791 180.727 435.123 180.144 447.504 178.537C453.76 177.726 459.48 176.961 460.217 176.836C460.955 176.711 461.557 178.151 461.557 180.037ZM297.441 207.837L300.029 228.341L295.522 229.168C284.066 231.27 209.784 239.79 209.1 239.08C207.837 237.766 203.183 198.067 204.282 197.977C204.839 197.931 222.572 195.61 243.689 192.818C264.806 190.028 284.957 187.65 288.468 187.538L294.852 187.334L297.441 207.837ZM193.66 217.501C194.847 227.209 195.531 236.649 195.181 238.476C194.613 241.426 189.559 242.418 150.259 247.299C125.904 250.326 105.673 252.308 105.3 251.704C104.107 249.77 100.153 212.435 101.048 211.539C101.934 210.653 178.346 200.414 186.79 200.049C191.436 199.849 191.527 200.079 193.66 217.501ZM465.128 206.788C465.128 213.316 458.176 216.158 456.635 210.261C455.783 206.997 454.749 206.729 447.011 207.757C440.05 208.681 438.341 208.39 438.341 206.279C438.341 203.569 443.225 202.46 457.539 201.921C464.778 201.647 465.128 201.872 465.128 206.788ZM1.56624 218.502C-1.0321 220.404 -0.723153 225.144 4.98248 270.942C8.43265 298.635 11.7685 322.119 12.3936 323.133C14.3954 326.377 18.0778 325.207 42.7272 313.482L66.8944 301.986L66.7587 294.266C66.6837 290.019 64.8747 273.271 62.7407 257.049L58.8583 227.554L31.6409 221.982C10.2935 217.613 3.80742 216.863 1.56624 218.502ZM468.014 229.533C468.787 232.618 468.346 234.724 466.709 235.763C462.662 238.33 460.249 237.62 459.187 233.553C458.289 230.121 457.339 229.839 450.049 230.838C443.686 231.712 441.913 231.401 441.913 229.415C441.913 226.961 446.574 225.929 461.076 225.173C465.919 224.921 467.034 225.622 468.014 229.533ZM408.279 252.58C409.915 265.361 411.32 279.315 411.404 283.587C411.581 292.709 407.477 300.576 400.991 303.549C396.569 305.577 170.953 334.423 140.637 336.836L125.983 338.004L119.654 331.669C116.174 328.185 113.316 324.247 113.306 322.92C113.293 321.592 111.756 308.039 109.886 292.8C108.018 277.561 106.623 264.955 106.789 264.787C106.955 264.619 150.481 259.121 203.515 252.569C256.55 246.018 320.835 237.961 346.372 234.665C371.909 231.371 395.616 228.825 399.054 229.007L405.302 229.342L408.279 252.58ZM45.6845 236.68C47.8739 237.286 49.09 241.454 50.6651 253.749C51.8116 262.696 52.4419 270.325 52.0651 270.702C50.015 272.752 19.5725 281.874 18.5635 280.739C17.9063 279.999 16.3991 270.545 15.2133 259.73C14.0293 248.915 12.6382 238.58 12.1221 236.764C11.2417 233.666 12.1685 233.535 26.9853 234.669C35.675 235.334 44.0898 236.24 45.6845 236.68ZM339.229 247.314C303.119 252.203 306.192 251.288 306.192 257.158C306.192 263.597 306.54 263.62 340.66 259.449L365.304 256.437L364.768 250.934C364.113 244.221 363.111 244.08 339.229 247.314ZM470.486 253.474C470.486 258.002 469.791 258.836 466.021 258.836C463.075 258.836 461.557 257.841 461.557 255.907C461.557 253.434 460.139 253.143 452.503 254.049C445.833 254.839 443.634 254.552 444.158 252.957C444.549 251.767 448.824 250.315 453.66 249.732C470.816 247.664 470.486 247.591 470.486 253.474ZM160.649 269.655C146.898 271.464 134.994 272.987 134.196 273.04C133.396 273.094 132.994 275.75 133.303 278.946C133.678 282.85 134.741 284.654 136.541 284.447C138.014 284.275 151.072 282.741 165.56 281.036L191.901 277.935V271.961C191.901 264.982 194.647 265.184 160.649 269.655ZM179.4 288.109C139.21 293.261 135.61 294.007 135.191 297.28C134.121 305.629 135.134 305.681 183.095 299.805C208.073 296.747 228.615 294.119 228.743 293.967C229.922 292.591 226.731 282.125 225.183 282.287C224.065 282.405 203.464 285.024 179.4 288.109ZM181.186 308.97C160.069 311.784 141.787 314.122 140.559 314.168C139.212 314.218 138.327 316.744 138.327 320.541C138.327 326.131 138.775 326.735 142.345 325.961C144.555 325.48 163.64 323.028 184.757 320.507C234.017 314.63 231.54 315.232 230.854 309.272C230.104 302.757 227.927 302.742 181.186 308.97Z" fill="black"/>
</svg>
